<?xml version="1.0" encoding="UTF-8" standalone="no"?>
<!-- Created with Inkscape (http://www.inkscape.org/) -->

<svg xmlns:dc="http://purl.org/dc/elements/1.1/" xmlns:cc="http://creativecommons.org/ns#" xmlns:rdf="http://www.w3.org/1999/02/22-rdf-syntax-ns#" xmlns:svg="http://www.w3.org/2000/svg" xmlns="http://www.w3.org/2000/svg" xmlns:sodipodi="http://sodipodi.sourceforge.net/DTD/sodipodi-0.dtd" xmlns:inkscape="http://www.inkscape.org/namespaces/inkscape" width="305" height="600" viewBox="0 0 305 600" id="svg2" version="1.1" inkscape:version="0.91 r13725" sodipodi:docname="grater.svg">
  <defs id="defs4" />
  <sodipodi:namedview id="base" pagecolor="#c0a5cd" bordercolor="#666666" borderopacity="1.0" inkscape:pageopacity="0" inkscape:pageshadow="2" inkscape:zoom="0.93221" inkscape:cx="126.63" inkscape:cy="223.1" inkscape:document-units="px" inkscape:current-layer="picture" showgrid="false" units="px" inkscape:window-width="1680" inkscape:window-height="1001" inkscape:window-x="0" inkscape:window-y="25" inkscape:window-maximized="1" fit-margin-top="0" fit-margin-left="0" fit-margin-right="0" fit-margin-bottom="0" />
  <metadata id="metadata7">
    <rdf:RDF>
      <cc:Work rdf:about="">
        <dc:format>image/svg+xml</dc:format>
        <dc:type rdf:resource="http://purl.org/dc/dcmitype/StillImage" />
        <dc:title></dc:title>
      </cc:Work>
    </rdf:RDF>
  </metadata>
  <g inkscape:label="picture" inkscape:groupmode="layer" id="picture" transform="translate(255.1,-183.62)">
    <g id="g4941" transform="matrix(0.45171,0,0,0.45171,-139.1,429.66)">
      <polygon style="fill:#c6c5c5" id="polygon324" points="5159.2,2462.5 5171.2,3500.2 4665.6,3430.4 4728.2,2441.4 " transform="translate(-4920.7,-2716.6)" />
      <polygon style="fill:#aeadae" id="polygon326" points="5279.6,2399.9 5337.4,3372.6 5171.2,3500.2 5159.2,2462.5 " transform="translate(-4920.7,-2716.6)" />
      <polygon style="fill:#484947" id="polygon328" points="4879.9,2379.4 5279.6,2399.9 5159.2,2462.5 4728.2,2441.4 " transform="translate(-4920.7,-2716.6)" />
      <path style="fill:#2a2b2a" inkscape:connector-curvature="0" id="path330" d="m 302.48,-525.18 c -15.3,-15.3 -256.197,-18.7 -329.397,-19.3 l -0.1,0 c -13.1,-0.2 -20.8,-0.2 -20.8,-0.2 l -54.603,17 c -7.2,1.2 -12.7,2.6 -15.9,4.3 -0.6,0.4 -1.3,0.8 -1.9,1.3 -13.4,25.4 -31.4,230.2 -31.4,230.2 l 80.003,-30.3 22.2,-208.4 14,-1.7 c 99.7,-1.9 252.897,8 273.897,23.3 29.7,21.7 40.5,236.2 40.5,236.2 l 62.2,-32.4 c 0,0 -20.6,-202 -38.7,-220 z" />
      <path style="fill:#2a2b2a" inkscape:connector-curvature="0" id="path332" d="m 270.08,-40.479 c 0,0 60.9,14.2 85.2,-36.5 0,0 8.1,28 0,38.3 0,0 -14.2,42.8003 -85.2,20.5 0,0 -26.4,-10.1 0,-22.3 z" />
      <path style="fill:#2a2b2a" inkscape:connector-curvature="0" id="path334" d="m 271.78,219.52 c 0,0 69.7,14.2 97.6,-36.5 0,0 9.3,28 0,38.3 0,0 -16.3,42.8 -97.6,20.5 0,0 -30.2,-10.1 0,-22.3 z" />
      <path style="fill:#2a2b2a" inkscape:connector-curvature="0" id="path336" d="m 275.38,473.72 c 0,0 82.4,17.2 115.4,-44.1 0,0 11,33.8 0,46.3 0,0 -19.2,51.7 -115.4,24.8 0,0 -35.7,-12.3 0,-27 z" />
      <ellipse style="fill:#2a2b2a" id="ellipse338" ry="20.013" rx="18.581" cy="-120.07" cx="-125.84" transform="matrix(0.99604,0.0889,-0.0889,0.99604,0,0)" />
      <path style="fill:#8d8c85" inkscape:connector-curvature="0" id="path340" d="m -104.02,-84.679 c -0.4,4.7 -4.6,8.2 -9.3,7.8 l -11.8,-1.1 c -4.7,-0.4 -8.2,-4.6 -7.7,-9.3 l 2.4,-27.701 c 0.5,-4.8 4.6,-8.2 9.4,-7.8 l 11.7,1 c 4.7,0.5 8.2,4.6 7.8,9.3 l -2.5,27.801 z" />
      <ellipse style="fill:#2a2b2a" id="ellipse342" ry="20.013" rx="18.582" cy="-120.47" cx="-60.839" transform="matrix(0.99604,0.0889,-0.0889,0.99604,0,0)" />
      <path style="fill:#8d8c85" inkscape:connector-curvature="0" id="path344" d="m -39.317,-79.279 c -0.4,4.7 -4.6,8.2 -9.3,7.8 l -11.8,-1.1 c -4.7,-0.4 -8.2,-4.6 -7.7,-9.3 l 2.4,-27.701 c 0.5,-4.8 4.6,-8.2 9.4,-7.8 l 11.7,1 c 4.7,0.5 8.2,4.6 7.8,9.3 l -2.5,27.801 z" />
      <ellipse style="fill:#2a2b2a" id="ellipse346" ry="20.013" rx="18.582" cy="-120.77" cx="4.0608" transform="matrix(0.99604,0.0889,-0.0889,0.99604,0,0)" />
      <path style="fill:#8d8c85" inkscape:connector-curvature="0" id="path348" d="m 25.383,-73.879 c -0.4,4.7 -4.6,8.2 -9.3,7.8 l -11.8002,-1.1 c -4.7,-0.4 -8.2,-4.6 -7.7,-9.3 l 2.4,-27.701 c 0.5,-4.8 4.6,-8.2 9.4,-7.8 l 11.7002,1 c 4.7,0.5 8.2,4.6 7.8,9.3 l -2.5,27.801 z" />
      <ellipse style="fill:#2a2b2a" id="ellipse350" ry="20.013" rx="18.582" cy="-121.17" cx="68.961" transform="matrix(0.99604,0.0889,-0.0889,0.99604,0,0)" />
      <path style="fill:#8d8c85" inkscape:connector-curvature="0" id="path352" d="m 90.083,-68.479 c -0.4,4.7 -4.6,8.2 -9.3,7.8 l -11.7,-1.1 c -4.8,-0.4 -8.3,-4.6 -7.8,-9.3 l 2.4,-27.7 c 0.5,-4.801 4.6,-8.201 9.4,-7.801 l 11.7,1 c 4.7,0.5 8.2,4.6 7.8,9.301 l -2.5,27.8 z" />
      <ellipse style="fill:#2a2b2a" id="ellipse354" ry="20.012" rx="18.582" cy="-121.67" cx="133.86" transform="matrix(0.99604,0.0889,-0.0889,0.99604,0,0)" />
      <path style="fill:#8d8c85" inkscape:connector-curvature="0" id="path356" d="m 154.88,-63.079 c -0.4,4.7 -4.6,8.2 -9.3,7.8 l -11.7,-1.1 c -4.8,-0.4 -8.3,-4.6 -7.8,-9.3 l 2.4,-27.7 c 0.5,-4.8 4.6,-8.201 9.4,-7.801 l 11.7,1 c 4.7,0.501 8.2,4.601 7.8,9.301 l -2.5,27.8 z" />
      <ellipse style="fill:#2a2b2a" id="ellipse358" ry="20.013" rx="18.583" cy="-27.772" cx="-149.74" transform="matrix(0.99604,0.0889,-0.0889,0.99604,0,0)" />
      <path style="fill:#8d8c85" inkscape:connector-curvature="0" id="path360" d="m -136.12,5.2213 c -0.4,4.7 -4.6,8.1997 -9.3,7.7997 l -11.8,-1.1 c -4.7,-0.4 -8.2,-4.5997 -7.7,-9.2997 l 2.4,-27.7003 c 0.5,-4.8 4.6,-8.2 9.4,-7.8 l 11.7,1 c 4.7,0.5 8.2,4.6 7.8,9.3 l -2.5,27.8003 z" />
      <ellipse style="fill:#2a2b2a" id="ellipse362" ry="20.013" rx="18.583" cy="-28.972" cx="-82.339" transform="matrix(0.99604,0.0889,-0.0889,0.99604,0,0)" />
      <path style="fill:#8d8c85" inkscape:connector-curvature="0" id="path364" d="m -68.817,10.021 c -0.4,4.7 -4.6,8.2 -9.3,7.8 l -11.8,-1.1 c -4.7,-0.4 -8.2,-4.6 -7.7,-9.2997 l 2.4,-27.7003 c 0.5,-4.8 4.6,-8.2 9.4,-7.8 l 11.7,1 c 4.7,0.5 8.2,4.6 7.8,9.3 l -2.5,27.8 z" />
      <path style="fill:#2a2b2a" inkscape:connector-curvature="0" id="path366" d="m 6.4828,-29.579 c -1,11 -10.1,19.2 -20.2998,18.3 -10.2,-0.9 -17.7,-10.6 -16.7,-21.6 1,-11 10,-19.2 20.3,-18.3 10.1998,0.9 17.6998,10.6 16.6998,21.6 z" />
      <path style="fill:#8d8c85" inkscape:connector-curvature="0" id="path368" d="m -1.6172,14.721 c -0.4,4.7 -4.6,8.2 -9.2998,7.8 l -11.8,-1.1 c -4.7,-0.4 -8.2,-4.6 -7.7,-9.3 l 2.4,-27.7 c 0.5,-4.8 4.6,-8.2 9.4,-7.8 l 11.6998,1 c 4.7,0.5 8.2,4.6 7.8,9.3 l -2.5,27.8 z" />
      <ellipse style="fill:#2a2b2a" id="ellipse370" ry="20.013" rx="18.582" cy="-31.472" cx="52.561" transform="matrix(0.99604,0.0889,-0.0889,0.99604,0,0)" />
      <path style="fill:#8d8c85" inkscape:connector-curvature="0" id="path372" d="m 65.683,19.521 c -0.4,4.7 -4.6,8.2 -9.3,7.8 l -11.8,-1.1 c -4.7,-0.4 -8.2,-4.6 -7.7,-9.3 l 2.4,-27.7 c 0.5,-4.8 4.6,-8.2 9.4,-7.8 l 11.7,1 c 4.7,0.5 8.2,4.6 7.8,9.3003 l -2.5,27.7997 z" />
      <ellipse style="fill:#2a2b2a" id="ellipse374" ry="20.013" rx="18.582" cy="-32.372" cx="119.86" transform="matrix(0.99604,0.0889,-0.0889,0.99604,0,0)" />
      <path style="fill:#8d8c85" inkscape:connector-curvature="0" id="path376" d="m 132.98,24.321 c -0.4,4.7 -4.6,8.2 -9.3,7.8 l -11.8,-1.1 c -4.7,-0.4 -8.2,-4.6 -7.7,-9.3 l 2.4,-27.6997 c 0.5,-4.8003 4.6,-8.2003 9.4,-7.8003 l 11.7,1 c 4.7,0.5 8.2,4.6003 7.8,9.3003 l -2.5,27.7997 z" />
      <ellipse style="fill:#2a2b2a" id="ellipse378" ry="20.013" rx="18.582" cy="-33.672" cx="187.26" transform="matrix(0.99604,0.0889,-0.0889,0.99604,0,0)" />
      <path style="fill:#8d8c85" inkscape:connector-curvature="0" id="path380" d="m 200.28,29.021 c -0.4,4.7 -4.6,8.2 -9.3,7.8 l -11.8,-1.1 c -4.7,-0.4 -8.2,-4.6 -7.7,-9.3 l 2.4,-27.6997 c 0.5,-4.8 4.6,-8.2 9.4,-7.8 l 11.7,1 c 4.7,0.5 8.2,4.6 7.8,9.3 l -2.5,27.7997 z" />
      <ellipse style="fill:#2a2b2a" id="ellipse382" ry="20.012" rx="18.582" cy="175.83" cx="-154.34" transform="matrix(0.99604,0.0889,-0.0889,0.99604,0,0)" />
      <path style="fill:#8d8c85" inkscape:connector-curvature="0" id="path384" d="m -158.72,207.52 c -0.4,4.7 -4.6,8.2 -9.3,7.8 l -11.8,-1.1 c -4.7,-0.4 -8.2,-4.6 -7.7,-9.3 l 2.4,-27.7 c 0.5,-4.8 4.6,-8.2 9.4,-7.8 l 11.7,1 c 4.7,0.5 8.2,4.6 7.8,9.3 l -2.5,27.8 z" />
      <ellipse style="fill:#2a2b2a" id="ellipse386" ry="20.012" rx="18.582" cy="174.53" cx="-86.839" transform="matrix(0.99604,0.0889,-0.0889,0.99604,0,0)" />
      <path style="fill:#8d8c85" inkscape:connector-curvature="0" id="path388" d="m -91.417,212.32 c -0.4,4.7 -4.6,8.2 -9.303,7.8 l -11.8,-1.1 c -4.7,-0.4 -8.2,-4.6 -7.7,-9.3 l 2.4,-27.7 c 0.5,-4.8 4.6,-8.2 9.4,-7.8 l 11.703,1 c 4.7,0.5 8.2,4.6 7.8,9.3 l -2.5,27.8 z" />
      <ellipse style="fill:#2a2b2a" id="ellipse390" ry="20.012" rx="18.582" cy="173.33" cx="-19.439" transform="matrix(0.99604,0.0889,-0.0889,0.99604,0,0)" />
      <path style="fill:#8d8c85" inkscape:connector-curvature="0" id="path392" d="m -24.117,217.02 c -0.4,4.7 -4.6,8.2 -9.3,7.8 l -11.7,-1.1 c -4.8,-0.4 -8.3,-4.6 -7.8,-9.3 l 2.4,-27.7 c 0.5,-4.8 4.6,-8.2 9.4,-7.8 l 11.7,1 c 4.7,0.5 8.2,4.6 7.8,9.3 l -2.5,27.8 z" />
      <ellipse style="fill:#2a2b2a" id="ellipse394" ry="20.013" rx="18.583" cy="172.33" cx="47.961" transform="matrix(0.99604,0.0889,-0.0889,0.99604,0,0)" />
      <path style="fill:#8d8c85" inkscape:connector-curvature="0" id="path396" d="m 43.183,221.82 c -0.4,4.7 -4.6,8.2 -9.3,7.8 l -11.7,-1.1 c -4.8,-0.4 -8.3,-4.6 -7.8,-9.3 l 2.4,-27.7 c 0.5,-4.8 4.6,-8.2 9.4,-7.8 l 11.7,1 c 4.7,0.5 8.2,4.6 7.8,9.3 l -2.5,27.8 z" />
      <ellipse style="fill:#2a2b2a" id="ellipse398" ry="20.013" rx="18.583" cy="171.03" cx="115.36" transform="matrix(0.99604,0.0889,-0.0889,0.99604,0,0)" />
      <path style="fill:#8d8c85" inkscape:connector-curvature="0" id="path400" d="m 110.48,226.62 c -0.4,4.7 -4.6,8.2 -9.3,7.8 l -11.697,-1.1 c -4.8,-0.4 -8.3,-4.6 -7.8,-9.3 l 2.4,-27.7 c 0.5,-4.8 4.6,-8.2 9.4,-7.8 l 11.697,1 c 4.7,0.5 8.2,4.6 7.8,9.3 l -2.5,27.8 z" />
      <ellipse style="fill:#2a2b2a" id="ellipse402" ry="20.013" rx="18.583" cy="169.83" cx="182.76" transform="matrix(0.99604,0.0889,-0.0889,0.99604,0,0)" />
      <path style="fill:#8d8c85" inkscape:connector-curvature="0" id="path404" d="m 177.68,231.32 c -0.4,4.7 -4.6,8.2 -9.3,7.8 l -11.7,-1.1 c -4.8,-0.4 -8.3,-4.6 -7.8,-9.3 l 2.4,-27.7 c 0.5,-4.8 4.6,-8.2 9.4,-7.8 l 11.7,1 c 4.7,0.5 8.2,4.6 7.8,9.3 l -2.5,27.8 z" />
      <ellipse style="fill:#2a2b2a" id="ellipse406" ry="20.013" rx="18.582" cy="389.73" cx="-141.34" transform="matrix(0.99604,0.0889,-0.0889,0.99604,0,0)" />
      <path style="fill:#8d8c85" inkscape:connector-curvature="0" id="path408" d="m -164.92,421.82 c -0.4,4.7 -4.6,8.2 -9.3,7.8 l -11.8,-1.1 c -4.7,-0.4 -8.2,-4.6 -7.7,-9.3 l 2.4,-27.7 c 0.5,-4.8 4.6,-8.2 9.4,-7.8 l 11.7,1 c 4.7,0.5 8.2,4.6 7.8,9.3 l -2.5,27.8 z" />
      <ellipse style="fill:#2a2b2a" id="ellipse410" ry="20.013" rx="18.582" cy="388.53" cx="-73.939" transform="matrix(0.99604,0.0889,-0.0889,0.99604,0,0)" />
      <path style="fill:#8d8c85" inkscape:connector-curvature="0" id="path412" d="m -97.617,426.62 c -0.4,4.7 -4.603,8.2 -9.303,7.8 l -11.8,-1.1 c -4.7,-0.4 -8.2,-4.6 -7.7,-9.3 l 2.4,-27.7 c 0.5,-4.8 4.6,-8.2 9.4,-7.8 l 11.7,1 c 4.703,0.5 8.203,4.6 7.803,9.3 l -2.5,27.8 z" />
      <ellipse style="fill:#2a2b2a" id="ellipse414" ry="20.012" rx="18.582" cy="387.33" cx="-6.6392" transform="matrix(0.99604,0.0889,-0.0889,0.99604,0,0)" />
      <path style="fill:#8d8c85" inkscape:connector-curvature="0" id="path416" d="m -30.317,431.32 c -0.4,4.7 -4.6,8.2 -9.3,7.8 l -11.8,-1.1 c -4.7,-0.4 -8.2,-4.6 -7.7,-9.3 l 2.4,-27.7 c 0.5,-4.8 4.6,-8.2 9.4,-7.8 l 11.7,1 c 4.7,0.5 8.2,4.6 7.8,9.3 l -2.5,27.8 z" />
      <ellipse style="fill:#2a2b2a" id="ellipse418" ry="20.012" rx="18.582" cy="386.13" cx="60.861" transform="matrix(0.99604,0.0889,-0.0889,0.99604,0,0)" />
      <path style="fill:#8d8c85" inkscape:connector-curvature="0" id="path420" d="m 36.883,436.12 c -0.4,4.7 -4.6,8.2 -9.3,7.8 l -11.7,-1.1 c -4.8,-0.4 -8.3002,-4.6 -7.8002,-9.3 l 2.4002,-27.7 c 0.5,-4.8 4.6,-8.2 9.4,-7.8 l 11.7,1 c 4.7,0.5 8.2,4.6 7.8,9.3 l -2.5,27.8 z" />
      <ellipse style="fill:#2a2b2a" id="ellipse422" ry="20.012" rx="18.582" cy="384.93" cx="128.26" transform="matrix(0.99604,0.0889,-0.0889,0.99604,0,0)" />
      <path style="fill:#8d8c85" inkscape:connector-curvature="0" id="path424" d="m 104.18,440.92 c -0.4,4.7 -4.597,8.2 -9.297,7.8 l -11.8,-1.1 c -4.7,-0.4 -8.2,-4.6 -7.7,-9.3 l 2.4,-27.7 c 0.5,-4.8 4.6,-8.2 9.4,-7.8 l 11.7,1 c 4.697,0.5 8.197,4.6 7.797,9.3 l -2.5,27.8 z" />
      <ellipse style="fill:#2a2b2a" id="ellipse426" ry="20.012" rx="18.582" cy="383.63" cx="195.76" transform="matrix(0.99604,0.0889,-0.0889,0.99604,0,0)" />
      <path style="fill:#8d8c85" inkscape:connector-curvature="0" id="path428" d="m 171.48,445.62 c -0.4,4.7 -4.6,8.2 -9.3,7.8 l -11.8,-1.1 c -4.7,-0.4 -8.2,-4.6 -7.7,-9.3 l 2.4,-27.7 c 0.5,-4.8 4.6,-8.2 9.4,-7.8 l 11.7,1 c 4.7,0.5 8.2,4.6 7.8,9.3 l -2.5,27.8 z" />
      <ellipse style="fill:#2a2b2a" id="ellipse430" ry="20.012" rx="18.582" cy="606.86" cx="-133.74" transform="matrix(0.99604,0.0889,-0.0889,0.99604,0,0)" />
      <path style="fill:#8d8c85" inkscape:connector-curvature="0" id="path432" d="m -176.32,638.52 c -0.4,4.7 -4.6,8.2 -9.3,7.8 l -11.8,-1.1 c -4.7,-0.4 -8.2,-4.6 -7.7,-9.3 l 2.4,-27.7 c 0.5,-4.8 4.6,-8.2 9.4,-7.8 l 11.7,1 c 4.7,0.5 8.2,4.6 7.8,9.3 l -2.5,27.8 z" />
      <ellipse style="fill:#2a2b2a" id="ellipse434" ry="20.012" rx="18.582" cy="605.56" cx="-66.239" transform="matrix(0.99604,0.0889,-0.0889,0.99604,0,0)" />
      <path style="fill:#8d8c85" inkscape:connector-curvature="0" id="path436" d="m -109.12,643.22 c -0.4,4.7 -4.6,8.2 -9.3,7.8 l -11.8,-1.1 c -4.7,-0.4 -8.2,-4.6 -7.7,-9.3 l 2.4,-27.7 c 0.5,-4.8 4.6,-8.2 9.4,-7.8 l 11.7,1 c 4.7,0.5 8.2,4.6 7.8,9.3 l -2.5,27.8 z" />
      <ellipse style="fill:#2a2b2a" id="ellipse438" ry="20.012" rx="18.582" cy="604.36" cx="1.1608" transform="matrix(0.99604,0.0889,-0.0889,0.99604,0,0)" />
      <path style="fill:#8d8c85" inkscape:connector-curvature="0" id="path440" d="m -41.817,648.02 c -0.4,4.7 -4.6,8.2 -9.3,7.8 l -11.8,-1.1 c -4.7,-0.4 -8.2,-4.6 -7.7,-9.3 l 2.4,-27.7 c 0.5,-4.8 4.6,-8.2 9.4,-7.8 l 11.7,1 c 4.7,0.5 8.2,4.6 7.8,9.3 l -2.5,27.8 z" />
      <ellipse style="fill:#2a2b2a" id="ellipse442" ry="20.012" rx="18.582" cy="602.86" cx="68.861" transform="matrix(0.99604,0.0889,-0.0889,0.99604,0,0)" />
      <path style="fill:#8d8c85" inkscape:connector-curvature="0" id="path444" d="m 25.483,652.82 c -0.4,4.7 -4.6,8.2 -9.3,7.8 l -11.8002,-1.1 c -4.7,-0.4 -8.2,-4.6 -7.7,-9.3 l 2.4,-27.7 c 0.5,-4.8 4.6,-8.2 9.4,-7.8 l 11.7002,1 c 4.7,0.5 8.2,4.6 7.8,9.3 l -2.5,27.8 z" />
      <ellipse style="fill:#2a2b2a" id="ellipse446" ry="20.012" rx="18.582" cy="601.56" cx="136.26" transform="matrix(0.99604,0.0889,-0.0889,0.99604,0,0)" />
      <path style="fill:#8d8c85" inkscape:connector-curvature="0" id="path448" d="m 92.783,657.52 c -0.4,4.7 -4.6,8.2 -9.3,7.8 l -11.8,-1.1 c -4.7,-0.4 -8.2,-4.6 -7.7,-9.3 l 2.4,-27.7 c 0.5,-4.8 4.6,-8.2 9.4,-7.8 l 11.7,1 c 4.7,0.5 8.2,4.6 7.8,9.3 l -2.5,27.8 z" />
      <ellipse style="fill:#2a2b2a" id="ellipse450" ry="20.012" rx="18.582" cy="600.36" cx="203.66" transform="matrix(0.99604,0.0889,-0.0889,0.99604,0,0)" />
      <path style="fill:#8d8c85" inkscape:connector-curvature="0" id="path452" d="m 160.08,662.32 c -0.4,4.7 -4.6,8.2 -9.3,7.8 l -11.8,-1.1 c -4.7,-0.4 -8.2,-4.6 -7.7,-9.3 l 2.4,-27.7 c 0.5,-4.8 4.6,-8.2 9.4,-7.8 l 11.7,1 c 4.7,0.5 8.2,4.6 7.8,9.3 l -2.5,27.8 z" />
      <ellipse style="fill:#2a2b2a" id="ellipse454" ry="20.013" rx="18.583" cy="77.228" cx="-121.24" transform="matrix(0.99604,0.0889,-0.0889,0.99604,0,0)" />
      <path style="fill:#8d8c85" inkscape:connector-curvature="0" id="path456" d="m -117.12,112.32 c -0.4,4.7 -4.6,8.2 -9.3,7.8 l -11.7,-1.1 c -4.8,-0.4 -8.3,-4.6 -7.8,-9.3 l 2.4,-27.699 c 0.5,-4.8 4.6,-8.2 9.4,-7.8 l 11.7,1 c 4.7,0.5 8.2,4.6 7.8,9.3 l -2.5,27.799 z" />
      <ellipse style="fill:#2a2b2a" id="ellipse458" ry="20.013" rx="18.582" cy="76.828" cx="-56.339" transform="matrix(0.99604,0.0889,-0.0889,0.99604,0,0)" />
      <path style="fill:#8d8c85" inkscape:connector-curvature="0" id="path460" d="m -52.417,117.72 c -0.4,4.7 -4.6,8.2 -9.3,7.8 l -11.8,-1.1 c -4.7,-0.4 -8.2,-4.6 -7.7,-9.3 l 2.4,-27.699 c 0.5,-4.8 4.6,-8.2 9.4,-7.8 l 11.7,1 c 4.7,0.5 8.2,4.6 7.8,9.3 l -2.5,27.799 z" />
      <ellipse style="fill:#2a2b2a" id="ellipse462" ry="20.013" rx="18.582" cy="76.428" cx="8.5608" transform="matrix(0.99604,0.0889,-0.0889,0.99604,0,0)" />
      <path style="fill:#8d8c85" inkscape:connector-curvature="0" id="path464" d="m 12.283,123.12 c -0.4,4.7 -4.6002,8.2 -9.3002,7.8 l -11.8,-1.1 c -4.6998,-0.4 -8.1998,-4.6 -7.6998,-9.3 l 2.4,-27.699 c 0.5,-4.8 4.5998,-8.2 9.3998,-7.8 l 11.7,1 c 4.7002,0.5 8.2002,4.6 7.8002,9.3 l -2.5,27.799 z" />
      <ellipse style="fill:#2a2b2a" id="ellipse466" ry="20.013" rx="18.583" cy="76.128" cx="73.461" transform="matrix(0.99604,0.0889,-0.0889,0.99604,0,0)" />
      <path style="fill:#8d8c85" inkscape:connector-curvature="0" id="path468" d="m 77.083,128.52 c -0.4,4.7 -4.6,8.2 -9.3,7.8 l -11.8,-1.1 c -4.7,-0.4 -8.2,-4.6 -7.7,-9.3 l 2.4,-27.699 c 0.5,-4.8 4.6,-8.2 9.4,-7.8 l 11.7,1 c 4.7,0.5 8.2,4.6 7.8,9.299 l -2.5,27.8 z" />
      <ellipse style="fill:#2a2b2a" id="ellipse470" ry="20.014" rx="18.582" cy="75.728" cx="138.56" transform="matrix(0.99604,0.0889,-0.0889,0.99604,0,0)" />
      <path style="fill:#8d8c85" inkscape:connector-curvature="0" id="path472" d="m 141.78,133.92 c -0.4,4.7 -4.6,8.2 -9.3,7.8 l -11.8,-1.1 c -4.7,-0.4 -8.2,-4.6 -7.7,-9.3 l 2.4,-27.7 c 0.5,-4.799 4.6,-8.199 9.4,-7.799 l 11.7,1 c 4.7,0.5 8.2,4.599 7.8,9.299 l -2.5,27.8 z" />
      <ellipse style="fill:#2a2b2a" id="ellipse474" ry="20.014" rx="18.582" cy="275.83" cx="-109.34" transform="matrix(0.99604,0.0889,-0.0889,0.99604,0,0)" />
      <path style="fill:#8d8c85" inkscape:connector-curvature="0" id="path476" d="m -122.92,311.22 c -0.4,4.7 -4.6,8.2 -9.3,7.8 l -11.7,-1.1 c -4.8,-0.4 -8.3,-4.6 -7.8,-9.3 l 2.4,-27.7 c 0.5,-4.8 4.6,-8.2 9.4,-7.8 l 11.7,1 c 4.7,0.5 8.2,4.6 7.8,9.3 l -2.5,27.8 z" />
      <ellipse style="fill:#2a2b2a" id="ellipse478" ry="20.014" rx="18.582" cy="275.43" cx="-44.439" transform="matrix(0.99604,0.0889,-0.0889,0.99604,0,0)" />
      <path style="fill:#8d8c85" inkscape:connector-curvature="0" id="path480" d="m -58.217,316.62 c -0.4,4.7 -4.6,8.2 -9.3,7.8 l -11.7,-1.1 c -4.8,-0.4 -8.3,-4.6 -7.8,-9.3 l 2.4,-27.7 c 0.5,-4.8 4.6,-8.2 9.4,-7.8 l 11.7,1 c 4.7,0.5 8.2,4.6 7.8,9.3 l -2.5,27.8 z" />
      <ellipse style="fill:#2a2b2a" id="ellipse482" ry="20.014" rx="18.582" cy="275.03" cx="20.461" transform="matrix(0.99604,0.0889,-0.0889,0.99604,0,0)" />
      <path style="fill:#8d8c85" inkscape:connector-curvature="0" id="path484" d="m 6.5828,322.02 c -0.4,4.7 -4.6,8.2 -9.3,7.8 l -11.6998,-1.1 c -4.8,-0.4 -8.3,-4.6 -7.8,-9.3 l 2.4,-27.7 c 0.5,-4.8 4.6,-8.2 9.4,-7.8 l 11.6998,1 c 4.7,0.5 8.2,4.6 7.8,9.3 l -2.5,27.8 z" />
      <ellipse style="fill:#2a2b2a" id="ellipse486" ry="20.013" rx="18.582" cy="274.73" cx="85.461" transform="matrix(0.99604,0.0889,-0.0889,0.99604,0,0)" />
      <path style="fill:#8d8c85" inkscape:connector-curvature="0" id="path488" d="m 71.283,327.42 c -0.4,4.7 -4.6,8.2 -9.3,7.8 l -11.7,-1.1 c -4.8,-0.4 -8.3,-4.6 -7.8,-9.3 l 2.4,-27.7 c 0.5,-4.8 4.6,-8.2 9.4,-7.8 l 11.7,1 c 4.7,0.5 8.2,4.6 7.8,9.3 l -2.5,27.8 z" />
      <ellipse style="fill:#2a2b2a" id="ellipse490" ry="20.013" rx="18.582" cy="274.33" cx="150.46" transform="matrix(0.99604,0.0889,-0.0889,0.99604,0,0)" />
      <path style="fill:#8d8c85" inkscape:connector-curvature="0" id="path492" d="m 135.98,332.82 c -0.4,4.7 -4.6,8.2 -9.3,7.8 l -11.8,-1.1 c -4.7,-0.4 -8.2,-4.6 -7.7,-9.3 l 2.4,-27.7 c 0.5,-4.8 4.6,-8.2 9.4,-7.8 l 11.7,1 c 4.7,0.5 8.2,4.6 7.8,9.3 l -2.5,27.8 z" />
      <ellipse style="fill:#2a2b2a" id="ellipse494" ry="20.013" rx="18.583" cy="496.66" cx="-101.44" transform="matrix(0.99604,0.0889,-0.0889,0.99604,0,0)" />
      <path style="fill:#8d8c85" inkscape:connector-curvature="0" id="path496" d="m -134.42,531.82 c -0.4,4.7 -4.6,8.2 -9.3,7.8 l -11.8,-1.1 c -4.7,-0.4 -8.2,-4.6 -7.7,-9.3 l 2.4,-27.7 c 0.5,-4.8 4.6,-8.2 9.4,-7.8 l 11.7,1 c 4.7,0.5 8.2,4.6 7.8,9.3 l -2.5,27.8 z" />
      <ellipse style="fill:#2a2b2a" id="ellipse498" ry="20.012" rx="18.583" cy="496.16" cx="-36.339" transform="matrix(0.99604,0.0889,-0.0889,0.99604,0,0)" />
      <path style="fill:#8d8c85" inkscape:connector-curvature="0" id="path500" d="m -69.717,537.12 c -0.4,4.7 -4.6,8.2 -9.3,7.8 l -11.8,-1.1 c -4.7,-0.4 -8.2,-4.6 -7.7,-9.3 l 2.4,-27.7 c 0.5,-4.8 4.6,-8.2 9.4,-7.8 l 11.7,1 c 4.7,0.5 8.2,4.6 7.8,9.3 l -2.5,27.8 z" />
      <ellipse style="fill:#2a2b2a" id="ellipse502" ry="20.012" rx="18.583" cy="495.76" cx="28.661" transform="matrix(0.99604,0.0889,-0.0889,0.99604,0,0)" />
      <path style="fill:#8d8c85" inkscape:connector-curvature="0" id="path504" d="m -5.0172,542.52 c -0.4,4.7 -4.6,8.2 -9.2998,7.8 l -11.8,-1.1 c -4.7,-0.4 -8.2,-4.6 -7.7,-9.3 l 2.4,-27.7 c 0.5,-4.8 4.6,-8.2 9.4,-7.8 l 11.7,1 c 4.6998,0.5 8.1998,4.6 7.7998,9.3 l -2.5,27.8 z" />
      <ellipse style="fill:#2a2b2a" id="ellipse506" ry="20.012" rx="18.583" cy="495.36" cx="93.561" transform="matrix(0.99604,0.0889,-0.0889,0.99604,0,0)" />
      <path style="fill:#8d8c85" inkscape:connector-curvature="0" id="path508" d="m 59.683,547.92 c -0.4,4.7 -4.6,8.2 -9.3,7.8 l -11.8,-1.1 c -4.7,-0.4 -8.2,-4.6 -7.7,-9.3 l 2.4,-27.7 c 0.5,-4.8 4.6,-8.2 9.4,-7.8 l 11.7,1 c 4.7,0.5 8.2,4.6 7.8,9.3 l -2.5,27.8 z" />
      <ellipse style="fill:#2a2b2a" id="ellipse510" ry="20.012" rx="18.582" cy="494.96" cx="158.46" transform="matrix(0.99604,0.0889,-0.0889,0.99604,0,0)" />
      <path style="fill:#8d8c85" inkscape:connector-curvature="0" id="path512" d="m 124.38,553.32 c -0.4,4.7 -4.6,8.2 -9.3,7.8 l -11.8,-1.1 c -4.697,-0.4 -8.197,-4.6 -7.697,-9.3 l 2.4,-27.7 c 0.5,-4.8 4.597,-8.2 9.397,-7.8 l 11.7,1 c 4.7,0.5 8.2,4.6 7.8,9.3 l -2.5,27.8 z" />
    </g>
  </g>
</svg>
